<?xml version="1.0" encoding="UTF-8"?>
<svg xmlns="http://www.w3.org/2000/svg" width="100" height="32" viewBox="0 0 100 32" fill="none">
  <g id="iMin logo" clip-path="url(#clip0_6020_991)">
    <path id="Vector" fill-rule="evenodd" clip-rule="evenodd" d="M65.5554 0.5C67.3999 0.5 68.8892 1.98397 68.8892 3.82191C68.8892 5.65986 67.3999 7.14383 65.5554 7.14383C63.7109 7.14383 62.2216 5.65986 62.2216 3.82191C62.2216 1.98397 63.7109 0.5 65.5554 0.5ZM17.7757 28.1781C17.7757 30.016 16.2864 31.5 14.4419 31.5C12.5973 31.5 11.1081 30.016 11.1081 28.1781V9.36298C11.1081 6.926 12.1055 4.70685 13.7177 3.10035C15.33 1.49385 17.5434 0.5 20.0027 0.5H28.8974C31.0015 0.5 32.928 1.23518 34.4446 2.44686C35.9612 1.23518 37.9014 0.5 40.0055 0.5H48.9001C51.3458 0.5 53.5729 1.49385 55.1851 3.10035C56.7974 4.70685 57.7948 6.91238 57.7948 9.36298V28.1781C57.7948 30.016 56.3055 31.5 54.461 31.5C52.6165 31.5 51.1272 30.016 51.1272 28.1781V9.36298C51.1272 8.75033 50.8813 8.20575 50.4714 7.79732C50.0751 7.38889 49.515 7.14383 48.9001 7.14383H40.0055C39.3906 7.14383 38.8441 7.38889 38.4342 7.79732C38.0243 8.20575 37.7784 8.75033 37.7784 9.36298V28.1781C37.7784 30.016 36.2891 31.5 34.4446 31.5C32.6001 31.5 31.1108 30.016 31.1108 28.1781V9.36298C31.1108 8.75033 30.8649 8.20575 30.455 7.79732C30.0451 7.38889 29.4986 7.14383 28.8837 7.14383H19.9891C19.3742 7.14383 18.8277 7.38889 18.4178 7.79732C18.0216 8.20575 17.762 8.75033 17.762 9.36298V28.1781H17.7757ZM3.33379 9.36298C5.1783 9.36298 6.66758 10.8469 6.66758 12.6849V28.1781C6.66758 30.016 5.1783 31.5 3.33379 31.5C1.48927 31.5 0 30.016 0 28.1781V12.6849C0 10.8469 1.48927 9.36298 3.33379 9.36298ZM3.33379 0.5C5.1783 0.5 6.66758 1.98397 6.66758 3.82191C6.66758 5.65986 5.1783 7.14383 3.33379 7.14383C1.48927 7.14383 0 5.65986 0 3.82191C0 1.98397 1.48927 0.5 3.33379 0.5ZM79.9973 28.1781C79.9973 30.016 78.508 31.5 76.6635 31.5C74.819 31.5 73.3297 30.016 73.3297 28.1781V9.36298C73.3297 6.926 74.3271 4.70685 75.9393 3.10035C77.5516 1.49385 79.765 0.5 82.2243 0.5H91.119C93.5647 0.5 95.7918 1.49385 97.404 3.10035C99.0163 4.70685 100.014 6.91238 100.014 9.36298V28.1781C100.014 30.016 98.5244 31.5 96.6799 31.5C94.8354 31.5 93.3461 30.016 93.3461 28.1781V9.36298C93.3461 8.75033 93.1001 8.20575 92.6902 7.79732C92.2804 7.38889 91.7338 7.14383 91.119 7.14383H82.2243C81.6095 7.14383 81.063 7.38889 80.6531 7.79732C80.2569 8.20575 79.9973 8.75033 79.9973 9.36298V28.1781ZM65.5554 9.36298C67.3999 9.36298 68.8892 10.8469 68.8892 12.6849V28.1781C68.8892 30.016 67.3999 31.5 65.5554 31.5C63.7109 31.5 62.2216 30.016 62.2216 28.1781V12.6849C62.2216 10.8469 63.7109 9.36298 65.5554 9.36298Z" fill="#FF2929"></path>
  </g>
  <defs>
    <clipPath id="clip0_6020_991">
      <rect width="100" height="31" fill="white" transform="translate(0 0.5)"></rect>
    </clipPath>
  </defs>
</svg>
