<svg id="图层_1" data-name="图层 1" xmlns="http://www.w3.org/2000/svg" viewBox="0 0 260.42 53.54">
    <defs>
        <style>
            .cls-1,
            .cls-2 {
                fill: #0052d9;
            }

            .cls-1 {
                fill-rule: evenodd;
            }
        </style>
    </defs>
    <title>logo</title>
    <path class="cls-1" d="M113.53,18.78a9.15,9.15,0,1,1-9.14,9.15,9.15,9.15,0,0,1,9.14-9.15m0,23.38A14.23,14.23,0,1,0,99.3,27.93a14.24,14.24,0,0,0,14.23,14.23" />
    <rect class="cls-2" x="200.77" y="13.7" width="5.09" height="5.09" />
    <rect class="cls-2" x="200.77" y="20.11" width="5.09" height="22.08" />
    <path class="cls-1" d="M145.56,18.78a9.15,9.15,0,1,1-9.14,9.15,9.15,9.15,0,0,1,9.14-9.15m-9.14-5.08V17a14.24,14.24,0,1,1,0,21.81V53.54h-5.09V13.7Z" />
    <polygon class="cls-1" points="166.69 13.7 171.81 33.77 176.86 13.7 179.4 13.7 181.95 13.7 187 33.77 192.12 13.7 197.21 13.7 189.54 42.18 184.46 42.18 179.4 23.48 174.35 42.18 169.26 42.18 161.6 13.7 166.69 13.7" />
    <polygon class="cls-1" points="85.89 18.78 85.89 42.18 80.81 42.18 80.81 18.78 69.03 18.78 69.03 13.7 97.5 13.7 97.5 18.78 85.89 18.78" />
    <path class="cls-1" d="M211.61,35.62a19.17,19.17,0,0,0,6.87,1.49,7.39,7.39,0,0,0,4.61-1.37,2.76,2.76,0,0,0,1.08-1.93,2.61,2.61,0,0,0-1.28-2.06,13.17,13.17,0,0,0-3-1.39c-3.22-1.17-6.6-2.25-8.31-5.53a7.64,7.64,0,0,1-.86-3.53,6.91,6.91,0,0,1,1-3.52c1.82-3.11,5.48-4.08,8.86-4.08a21,21,0,0,1,7.71,1.44l.06,0-1.94,4.69a14.08,14.08,0,0,0-5.84-1.09c-2.34,0-4.71.66-4.71,2.53,0,3.55,6.32,3.64,10.09,6.32,6.71,4.78,3.13,14.54-7.35,14.56a23.75,23.75,0,0,1-8.84-1.87Z" />
    <path class="cls-1" d="M238.14,30a9.38,9.38,0,0,1-.23-2.07,9.13,9.13,0,0,1,15.37-6.68Zm8.91,12.16a14.23,14.23,0,0,0,11.57-5.94l-4.14-3a9.13,9.13,0,0,1-13.84,1.19c6.61-3.83,13.2-7.6,19.78-11.4a14.23,14.23,0,1,0-13.37,19.11" />
    <path class="cls-1" d="M53.46,28.79H28.79V53.46A24.68,24.68,0,0,0,53.46,28.79" />
    <path class="cls-1" d="M0,28.79H24.68V53.46A24.68,24.68,0,0,1,0,28.79" />
    <path class="cls-1" d="M28.79,24.68H53.46V0A24.68,24.68,0,0,0,28.79,24.68" />
    <path class="cls-1" d="M24.68,24.68H0V0A24.68,24.68,0,0,1,24.68,24.68" />
</svg>